<svg xmlns="http://www.w3.org/2000/svg" width="512" height="512" fill="none"><rect width="512" height="400" y="56" fill="red" rx="120" style="fill:red;fill:color(display-p3 1 0 0);fill-opacity:1"/><path fill="#fff" fill-rule="evenodd" d="M129 144c0-17 14-32 32-32h190c18 0 32 15 32 32v159c0 18-14 32-32 32H161c-18 0-32-14-32-32V144Zm161 53a12 12 0 0 0-20 0l-43 64-13-17c-3-3-6-4-10-4-3 0-7 1-9 4l-32 40a12 12 0 0 0 9 19h168c4 0 8-2 10-6s2-9-1-12l-59-88Zm-106-5a24 24 0 1 0 0-48 24 24 0 0 0 0 48Zm7 218c0-6 5-11 11-11h42a11 11 0 1 1 0 22h-42c-6 0-11-5-11-11Zm88-11a11 11 0 1 0 0 22h42a11 11 0 0 0 0-22h-42Zm-88-31c0-8 6-15 14-15h154a15 15 0 1 1 0 30H205c-8 0-14-7-14-15Zm-37 35a25 25 0 1 0 0-51 25 25 0 0 0 0 51Z" clip-rule="evenodd" style="fill:#fff;fill-opacity:1"/></svg>